<svg xmlns="http://www.w3.org/2000/svg" width="232" height="232" viewBox="0 0 232 232" role="img" aria-label="Заглушка QR-кода"><title>Заглушка QR-кода</title><rect width="232" height="232" rx="12" fill="#fff"/><g fill="#0E1512"><rect x="80" y="16" width="8" height="8"/><rect x="96" y="16" width="8" height="8"/><rect x="112" y="16" width="8" height="8"/><rect x="136" y="16" width="8" height="8"/><rect x="112" y="24" width="8" height="8"/><rect x="128" y="24" width="8" height="8"/><rect x="80" y="32" width="8" height="8"/><rect x="88" y="32" width="8" height="8"/><rect x="112" y="32" width="8" height="8"/><rect x="128" y="32" width="8" height="8"/><rect x="88" y="40" width="8" height="8"/><rect x="104" y="40" width="8" height="8"/><rect x="104" y="48" width="8" height="8"/><rect x="128" y="48" width="8" height="8"/><rect x="136" y="48" width="8" height="8"/><rect x="144" y="48" width="8" height="8"/><rect x="80" y="56" width="8" height="8"/><rect x="96" y="56" width="8" height="8"/><rect x="120" y="56" width="8" height="8"/><rect x="128" y="56" width="8" height="8"/><rect x="136" y="56" width="8" height="8"/><rect x="144" y="56" width="8" height="8"/><rect x="120" y="72" width="8" height="8"/><rect x="128" y="72" width="8" height="8"/><rect x="136" y="72" width="8" height="8"/><rect x="40" y="80" width="8" height="8"/><rect x="64" y="80" width="8" height="8"/><rect x="80" y="80" width="8" height="8"/><rect x="136" y="80" width="8" height="8"/><rect x="152" y="80" width="8" height="8"/><rect x="168" y="80" width="8" height="8"/><rect x="184" y="80" width="8" height="8"/><rect x="208" y="80" width="8" height="8"/><rect x="64" y="88" width="8" height="8"/><rect x="104" y="88" width="8" height="8"/><rect x="120" y="88" width="8" height="8"/><rect x="152" y="88" width="8" height="8"/><rect x="168" y="88" width="8" height="8"/><rect x="176" y="88" width="8" height="8"/><rect x="16" y="96" width="8" height="8"/><rect x="32" y="96" width="8" height="8"/><rect x="48" y="96" width="8" height="8"/><rect x="56" y="96" width="8" height="8"/><rect x="72" y="96" width="8" height="8"/><rect x="80" y="96" width="8" height="8"/><rect x="88" y="96" width="8" height="8"/><rect x="104" y="96" width="8" height="8"/><rect x="112" y="96" width="8" height="8"/><rect x="120" y="96" width="8" height="8"/><rect x="144" y="96" width="8" height="8"/><rect x="160" y="96" width="8" height="8"/><rect x="192" y="96" width="8" height="8"/><rect x="208" y="96" width="8" height="8"/><rect x="40" y="104" width="8" height="8"/><rect x="56" y="104" width="8" height="8"/><rect x="80" y="104" width="8" height="8"/><rect x="136" y="104" width="8" height="8"/><rect x="168" y="104" width="8" height="8"/><rect x="184" y="104" width="8" height="8"/><rect x="192" y="104" width="8" height="8"/><rect x="16" y="112" width="8" height="8"/><rect x="24" y="112" width="8" height="8"/><rect x="40" y="112" width="8" height="8"/><rect x="112" y="112" width="8" height="8"/><rect x="144" y="112" width="8" height="8"/><rect x="152" y="112" width="8" height="8"/><rect x="168" y="112" width="8" height="8"/><rect x="184" y="112" width="8" height="8"/><rect x="192" y="112" width="8" height="8"/><rect x="200" y="112" width="8" height="8"/><rect x="16" y="120" width="8" height="8"/><rect x="48" y="120" width="8" height="8"/><rect x="56" y="120" width="8" height="8"/><rect x="72" y="120" width="8" height="8"/><rect x="80" y="120" width="8" height="8"/><rect x="104" y="120" width="8" height="8"/><rect x="112" y="120" width="8" height="8"/><rect x="120" y="120" width="8" height="8"/><rect x="144" y="120" width="8" height="8"/><rect x="176" y="120" width="8" height="8"/><rect x="184" y="120" width="8" height="8"/><rect x="200" y="120" width="8" height="8"/><rect x="16" y="128" width="8" height="8"/><rect x="24" y="128" width="8" height="8"/><rect x="32" y="128" width="8" height="8"/><rect x="48" y="128" width="8" height="8"/><rect x="64" y="128" width="8" height="8"/><rect x="72" y="128" width="8" height="8"/><rect x="80" y="128" width="8" height="8"/><rect x="104" y="128" width="8" height="8"/><rect x="160" y="128" width="8" height="8"/><rect x="168" y="128" width="8" height="8"/><rect x="184" y="128" width="8" height="8"/><rect x="32" y="136" width="8" height="8"/><rect x="64" y="136" width="8" height="8"/><rect x="72" y="136" width="8" height="8"/><rect x="96" y="136" width="8" height="8"/><rect x="136" y="136" width="8" height="8"/><rect x="144" y="136" width="8" height="8"/><rect x="168" y="136" width="8" height="8"/><rect x="176" y="136" width="8" height="8"/><rect x="184" y="136" width="8" height="8"/><rect x="200" y="136" width="8" height="8"/><rect x="48" y="144" width="8" height="8"/><rect x="56" y="144" width="8" height="8"/><rect x="64" y="144" width="8" height="8"/><rect x="80" y="144" width="8" height="8"/><rect x="96" y="144" width="8" height="8"/><rect x="104" y="144" width="8" height="8"/><rect x="112" y="144" width="8" height="8"/><rect x="120" y="144" width="8" height="8"/><rect x="144" y="144" width="8" height="8"/><rect x="160" y="144" width="8" height="8"/><rect x="168" y="144" width="8" height="8"/><rect x="176" y="144" width="8" height="8"/><rect x="208" y="144" width="8" height="8"/><rect x="80" y="152" width="8" height="8"/><rect x="88" y="152" width="8" height="8"/><rect x="104" y="152" width="8" height="8"/><rect x="152" y="152" width="8" height="8"/><rect x="168" y="152" width="8" height="8"/><rect x="176" y="152" width="8" height="8"/><rect x="192" y="152" width="8" height="8"/><rect x="200" y="152" width="8" height="8"/><rect x="88" y="160" width="8" height="8"/><rect x="104" y="160" width="8" height="8"/><rect x="112" y="160" width="8" height="8"/><rect x="128" y="160" width="8" height="8"/><rect x="136" y="160" width="8" height="8"/><rect x="144" y="160" width="8" height="8"/><rect x="160" y="160" width="8" height="8"/><rect x="168" y="160" width="8" height="8"/><rect x="184" y="160" width="8" height="8"/><rect x="208" y="160" width="8" height="8"/><rect x="96" y="168" width="8" height="8"/><rect x="104" y="168" width="8" height="8"/><rect x="112" y="168" width="8" height="8"/><rect x="128" y="168" width="8" height="8"/><rect x="152" y="168" width="8" height="8"/><rect x="160" y="168" width="8" height="8"/><rect x="168" y="168" width="8" height="8"/><rect x="208" y="168" width="8" height="8"/><rect x="88" y="176" width="8" height="8"/><rect x="96" y="176" width="8" height="8"/><rect x="112" y="176" width="8" height="8"/><rect x="136" y="176" width="8" height="8"/><rect x="144" y="176" width="8" height="8"/><rect x="176" y="176" width="8" height="8"/><rect x="184" y="176" width="8" height="8"/><rect x="200" y="176" width="8" height="8"/><rect x="104" y="184" width="8" height="8"/><rect x="112" y="184" width="8" height="8"/><rect x="152" y="184" width="8" height="8"/><rect x="160" y="184" width="8" height="8"/><rect x="168" y="184" width="8" height="8"/><rect x="176" y="184" width="8" height="8"/><rect x="184" y="184" width="8" height="8"/><rect x="192" y="184" width="8" height="8"/><rect x="120" y="192" width="8" height="8"/><rect x="128" y="192" width="8" height="8"/><rect x="136" y="192" width="8" height="8"/><rect x="144" y="192" width="8" height="8"/><rect x="168" y="192" width="8" height="8"/><rect x="176" y="192" width="8" height="8"/><rect x="184" y="192" width="8" height="8"/><rect x="192" y="192" width="8" height="8"/><rect x="200" y="192" width="8" height="8"/><rect x="88" y="200" width="8" height="8"/><rect x="96" y="200" width="8" height="8"/><rect x="112" y="200" width="8" height="8"/><rect x="136" y="200" width="8" height="8"/><rect x="144" y="200" width="8" height="8"/><rect x="160" y="200" width="8" height="8"/><rect x="192" y="200" width="8" height="8"/><rect x="88" y="208" width="8" height="8"/><rect x="96" y="208" width="8" height="8"/><rect x="120" y="208" width="8" height="8"/><rect x="152" y="208" width="8" height="8"/><rect x="168" y="208" width="8" height="8"/><rect x="184" y="208" width="8" height="8"/></g><rect x="16" y="16" width="56" height="56" fill="#0E1512"/><rect x="24" y="24" width="40" height="40" fill="#fff"/><rect x="32" y="32" width="24" height="24" fill="#0E1512"/><rect x="160" y="16" width="56" height="56" fill="#0E1512"/><rect x="168" y="24" width="40" height="40" fill="#fff"/><rect x="176" y="32" width="24" height="24" fill="#0E1512"/><rect x="16" y="160" width="56" height="56" fill="#0E1512"/><rect x="24" y="168" width="40" height="40" fill="#fff"/><rect x="32" y="176" width="24" height="24" fill="#0E1512"/></svg>